<svg width="84" height="84" viewBox="0 0 84 84" fill="none" xmlns="http://www.w3.org/2000/svg">
<path fill-rule="evenodd" clip-rule="evenodd" d="M46.8882 6.31701L49.848 6.80655L45.4206 33.5746C45.8114 33.7129 46.1875 33.8782 46.547 34.0681L63.1192 14.0694L65.4291 15.9836L48.9102 35.918C49.2105 36.254 49.4836 36.6132 49.727 36.9919L74.4359 27.0909L75.5518 29.8756L50.8796 39.762C51.042 40.5005 51.1072 41.2697 51.0631 42.0529L77.7257 46.8149L77.1983 49.7682L50.3716 44.9769C50.1766 45.4263 49.9446 45.8535 49.6801 46.2555L71.0285 63.4752L69.145 65.8103L47.6062 48.4369C47.2391 48.7065 46.8505 48.9466 46.4443 49.1547L57.0985 75.2096L54.3216 76.3451L43.5613 50.0305C43.274 50.0639 42.9831 50.0828 42.6896 50.0864L38.099 77.8415L35.1392 77.3519L39.7298 49.5968C39.1834 49.4035 38.6657 49.1571 38.1817 48.8648L19.4888 71.4227L17.1788 69.5085L35.9277 46.8831C35.704 46.6021 35.4981 46.3072 35.3114 46.0003L8.71779 56.6566L7.60192 53.8719L34.2281 43.2025C34.1561 42.8311 34.1086 42.4524 34.0871 42.0685L6.31984 37.1092L6.8473 34.156L34.4501 39.0858C34.5521 38.7529 34.6734 38.4298 34.8127 38.1176L13.1035 20.6068L14.987 18.2717L36.5085 35.6311C36.7763 35.3588 37.0617 35.1051 37.3626 34.8716L27.0703 9.70153L29.8471 8.56606L40.032 33.4732C40.8063 33.2298 41.623 33.0953 42.4608 33.085L46.8882 6.31701Z" fill="#83A17D"/>
</svg>
