<svg width="184" height="59" viewBox="0 0 184 59" fill="none" xmlns="http://www.w3.org/2000/svg">
<path d="M70.1657 35.018L73.1177 35L75.5837 26.054L77.9417 35H80.9117L84.4217 22.436H81.7037L79.4717 32.138L77.0597 22.436H74.2517L71.6957 32.192L69.4817 22.436H66.7817L70.1657 35.018ZM85.4192 29.978C85.4192 33.092 87.4352 35.162 89.9552 35.162C91.5392 35.162 92.6732 34.406 93.2672 33.542V35H95.8052V25.028H93.2672V26.45C92.6732 25.622 91.5752 24.866 89.9732 24.866C87.4352 24.866 85.4192 26.864 85.4192 29.978ZM93.2672 30.014C93.2672 31.904 92.0072 32.948 90.6212 32.948C89.2712 32.948 87.9932 31.868 87.9932 29.978C87.9932 28.088 89.2712 27.08 90.6212 27.08C92.0072 27.08 93.2672 28.124 93.2672 30.014ZM98.6624 31.904C98.6624 34.19 99.9404 35 101.848 35H103.432V32.876H102.262C101.47 32.876 101.2 32.588 101.2 31.922V27.098H103.432V25.028H101.2V22.562H98.6624V25.028H97.4744V27.098H98.6624V31.904ZM104.597 30.014C104.597 33.146 106.649 35.162 109.529 35.162C112.013 35.162 113.687 33.758 114.227 31.634H111.509C111.203 32.534 110.555 33.002 109.511 33.002C108.107 33.002 107.171 31.958 107.171 30.014C107.171 28.07 108.107 27.008 109.511 27.008C110.555 27.008 111.221 27.548 111.509 28.394H114.227C113.687 26.162 112.013 24.866 109.529 24.866C106.649 24.866 104.597 26.882 104.597 30.014ZM116.073 35H118.593V29.492C118.593 27.89 119.475 27.026 120.843 27.026C122.175 27.026 123.057 27.89 123.057 29.492V35H125.577V29.15C125.577 26.396 123.939 24.884 121.689 24.884C120.357 24.884 119.241 25.424 118.593 26.27V21.68H116.073V35ZM137.429 32.426L133.973 22.436H131.273L135.881 35H138.941L143.549 22.436H140.867L137.429 32.426ZM145.059 35H147.579V25.028H145.059V35ZM146.337 23.84C147.219 23.84 147.885 23.192 147.885 22.364C147.885 21.536 147.219 20.888 146.337 20.888C145.437 20.888 144.789 21.536 144.789 22.364C144.789 23.192 145.437 23.84 146.337 23.84ZM149.421 29.978C149.421 33.092 151.437 35.162 153.975 35.162C155.541 35.162 156.657 34.442 157.251 33.524V35H159.807V21.68H157.251V26.414C156.567 25.478 155.307 24.866 153.993 24.866C151.437 24.866 149.421 26.864 149.421 29.978ZM157.269 30.014C157.269 31.904 156.009 32.948 154.623 32.948C153.273 32.948 151.995 31.868 151.995 29.978C151.995 28.088 153.273 27.08 154.623 27.08C156.009 27.08 157.269 28.124 157.269 30.014ZM166.552 26.936C167.848 26.936 168.892 27.764 168.928 29.078H164.194C164.392 27.71 165.346 26.936 166.552 26.936ZM171.286 31.868H168.568C168.244 32.534 167.65 33.074 166.57 33.074C165.31 33.074 164.302 32.246 164.176 30.77H171.466C171.52 30.446 171.538 30.122 171.538 29.798C171.538 26.828 169.504 24.866 166.624 24.866C163.672 24.866 161.62 26.864 161.62 30.014C161.62 33.146 163.726 35.162 166.624 35.162C169.09 35.162 170.746 33.704 171.286 31.868ZM183.008 30.014C183.008 26.864 180.758 24.866 177.878 24.866C174.998 24.866 172.748 26.864 172.748 30.014C172.748 33.146 174.926 35.162 177.806 35.162C180.704 35.162 183.008 33.146 183.008 30.014ZM175.304 30.014C175.304 28.016 176.51 27.062 177.842 27.062C179.174 27.062 180.416 28.016 180.416 30.014C180.416 31.994 179.138 32.966 177.806 32.966C176.456 32.966 175.304 31.994 175.304 30.014Z" fill="#152427"/>
<path d="M28.5 59C21.1311 59 14.0487 56.0457 8.73883 50.757C3.42898 45.4684 0.304523 38.2565 0.02109 30.6347C-0.262343 23.0129 2.31728 15.5737 7.21865 9.87821C12.12 4.1827 18.9621 0.673611 26.3092 0.0872876L26.6111 4.14035C20.2764 4.64587 14.3772 7.67142 10.1512 12.5821C5.92525 17.4928 3.7011 23.9068 3.94547 30.4783C4.18985 37.0498 6.88376 43.2679 11.4619 47.8278C16.0401 52.3877 22.1466 54.9349 28.5 54.9349V59Z" fill="#143C3C"/>
<ellipse cx="29" cy="29.5" rx="22" ry="21.5" fill="#83A17D"/>
<path d="M33.4898 28.2259C34.1511 28.62 34.1377 29.5821 33.4658 29.9577L27.4968 33.2945C26.8249 33.6702 25.9983 33.1775 26.009 32.4078L26.1037 25.5701C26.1144 24.8004 26.9543 24.3309 27.6156 24.725L33.4898 28.2259Z" fill="#FEF6FB"/>
</svg>
