<svg width="146" height="20" viewBox="0 0 146 20" fill="none" xmlns="http://www.w3.org/2000/svg">
<path d="M12.1519 11.9922L11.6016 12.0034C11.1074 13.4409 10.7031 14.6875 10.3887 15.7432C10.0742 16.7913 9.81966 17.4764 9.625 17.7983C9.43783 18.1128 9.23193 18.3674 9.00732 18.562C8.7902 18.7492 8.50944 18.8914 8.16504 18.9888C7.59603 19.146 6.82487 19.2246 5.85156 19.2246C4.87826 19.2246 3.94238 19.116 3.04395 18.8989C2.15299 18.6818 1.44173 18.416 0.910156 18.1016C0.378581 17.7796 0.112793 17.4689 0.112793 17.1694C0.112793 16.9972 0.187663 16.8625 0.337402 16.7651C0.479655 16.6603 0.648112 16.6079 0.842773 16.6079C1.53158 16.6079 2.03695 16.4993 2.35889 16.2822C2.68831 16.0576 2.99902 15.6496 3.29102 15.0581C3.58301 14.4666 3.87126 13.7816 4.15576 13.0029C4.44775 12.2243 4.71729 11.5018 4.96436 10.8354C5.21891 10.1691 5.5109 9.48779 5.84033 8.7915C6.54411 7.29411 7.41634 6.2946 8.45703 5.79297C8.95866 5.55339 9.625 5.36995 10.4561 5.24268C11.2871 5.10791 11.9347 5.04053 12.3989 5.04053C12.8631 5.04053 13.1663 5.04801 13.3086 5.06299C13.4508 5.07048 13.5931 5.09294 13.7354 5.13037C14.0273 5.20524 14.1733 5.36995 14.1733 5.62451C14.1733 5.78174 14.1434 5.92773 14.0835 6.0625C14.0236 6.19727 13.8402 6.52295 13.5332 7.03955C13.2337 7.54867 12.7171 8.83643 11.9834 10.9028C15.959 10.4386 17.9468 8.98617 17.9468 6.54541C17.9468 5.72184 17.6885 5.10417 17.1719 4.69238C16.6403 4.2806 16.1012 4.02979 15.5547 3.93994C14.7386 3.80518 13.8402 3.73779 12.8594 3.73779C11.8861 3.73779 10.8678 3.83138 9.80469 4.01855C8.74154 4.19824 7.91423 4.40039 7.32275 4.625C6.73877 4.84212 6.21468 5.04427 5.75049 5.23145C5.29378 5.41113 5.00179 5.50098 4.87451 5.50098C4.4777 5.50098 4.2793 5.36995 4.2793 5.10791C4.2793 4.77848 4.49268 4.479 4.91943 4.20947C6.40186 3.25863 8.09766 2.53613 10.0068 2.04199C11.916 1.54785 14.3081 1.30078 17.1831 1.30078C18.658 1.30078 19.8896 1.45426 20.8779 1.76123C21.8662 2.06071 22.6224 2.37891 23.1465 2.71582C23.6781 3.04525 24.1123 3.48324 24.4492 4.02979C24.7861 4.57633 24.9546 5.17529 24.9546 5.82666C24.9546 6.47803 24.8311 7.05452 24.584 7.55615C24.3369 8.05029 23.9963 8.47705 23.562 8.83643C23.1353 9.18831 22.5924 9.50651 21.9336 9.79102C20.7956 10.2777 19.257 10.6745 17.3179 10.9814C18.8003 10.9814 19.972 11.236 20.833 11.7451C21.694 12.2542 22.1245 12.973 22.1245 13.9014L21.9224 15.9004C21.9224 16.4395 22.1956 16.7464 22.7422 16.8213C22.9743 16.8587 23.2064 16.8887 23.4385 16.9111C23.985 16.9561 24.2583 17.1657 24.2583 17.54C24.2583 18.0492 23.6219 18.4946 22.3491 18.8765C21.0838 19.2583 19.695 19.4492 18.1826 19.4492C15.3301 19.4492 13.9038 18.6144 13.9038 16.9448C13.9038 16.5405 14.0273 15.964 14.2744 15.2153C14.5215 14.4666 14.645 13.965 14.645 13.7104C14.645 13.2388 14.4504 12.8345 14.061 12.4976C13.6717 12.1606 13.0353 11.9922 12.1519 11.9922ZM37.499 3.16504C37.499 3.96615 37.0535 4.66618 36.1626 5.26514C35.2791 5.85661 34.3433 6.15234 33.355 6.15234C32.3742 6.15234 31.6105 5.95394 31.064 5.55713C30.5174 5.15283 30.2441 4.66243 30.2441 4.08594C30.2441 3.50944 30.4538 2.98535 30.873 2.51367C31.2923 2.04199 31.8351 1.67139 32.5015 1.40186C33.1753 1.13232 33.9053 0.997559 34.6914 0.997559C35.4775 0.997559 36.1401 1.20719 36.6792 1.62646C37.2257 2.03825 37.499 2.55111 37.499 3.16504ZM34.3433 17.1021C34.8524 17.1021 35.5412 16.9823 36.4097 16.7427C37.2856 16.4956 37.922 16.2785 38.3188 16.0913C38.7157 15.8966 38.9927 15.7993 39.1499 15.7993C39.4644 15.7993 39.6216 15.9565 39.6216 16.271C39.6216 16.4132 39.5055 16.5742 39.2734 16.7539C38.5098 17.3229 37.1359 17.9144 35.1519 18.5283C33.1678 19.1423 31.3971 19.4492 29.8398 19.4492C28.874 19.4492 28.0654 19.2957 27.4141 18.9888C26.7627 18.6818 26.437 18.2139 26.437 17.585C26.437 17.2031 26.7627 16.2673 27.4141 14.7773C28.6419 11.9548 29.2559 9.82845 29.2559 8.39844L29.2446 7.97168C29.2446 7.59733 29.6077 7.41016 30.334 7.41016L35.8818 7.28662C36.0765 7.28662 36.2225 7.34652 36.3198 7.46631C36.4172 7.57861 36.4658 7.70589 36.4658 7.84814C36.4658 8.36475 36.23 9.21826 35.7583 10.4087C35.2866 11.5916 34.8149 12.7559 34.3433 13.9014C33.8716 15.0469 33.6357 15.8667 33.6357 16.3608C33.6357 16.855 33.8716 17.1021 34.3433 17.1021ZM40.2729 18.2476C38.8654 17.4015 38.1616 16.1175 38.1616 14.3955C38.1616 13.4971 38.3451 12.6548 38.7119 11.8687C39.0863 11.075 39.5954 10.39 40.2393 9.81348C40.8906 9.23698 41.6468 8.74284 42.5078 8.33105C44.2298 7.5 46.2026 7.08447 48.4263 7.08447C52.7987 7.08447 55.1608 8.46956 55.5127 11.2397C56.0368 11.4119 56.5758 11.498 57.1299 11.498C57.6914 11.498 58.1593 11.4569 58.5337 11.3745C58.908 11.2922 59.2599 11.1686 59.5894 11.0039C59.9263 10.8392 60.1659 10.7568 60.3081 10.7568C60.5926 10.7568 60.7349 10.8953 60.7349 11.1724C60.7349 11.4494 60.514 11.7376 60.0723 12.0371C59.2412 12.6061 58.1406 12.8906 56.7705 12.8906C56.2539 12.8906 55.8346 12.8644 55.5127 12.812C55.2731 14.6987 54.2998 16.2673 52.5928 17.5176C51.7767 18.1165 50.7734 18.5882 49.583 18.9326C48.4001 19.277 47.1722 19.4492 45.8994 19.4492C44.6341 19.4492 43.5485 19.3481 42.6426 19.146C41.7367 18.9513 40.9468 18.6519 40.2729 18.2476ZM44.3496 15.3838C44.3496 16.7689 44.855 17.4614 45.8657 17.4614C46.5096 17.4614 47.1086 17.1095 47.6626 16.4058C48.2241 15.702 48.6584 14.8298 48.9653 13.7891C49.2798 12.7484 49.437 11.689 49.437 10.6108C49.437 9.52523 49.0589 8.98242 48.3027 8.98242C47.6439 8.98242 47.0037 9.29313 46.3823 9.91455C45.7684 10.536 45.2743 11.3446 44.8999 12.3403C44.533 13.3286 44.3496 14.3431 44.3496 15.3838ZM70.5503 16.5742L72.8188 16.3608C73.4852 16.3608 73.8184 16.5405 73.8184 16.8999C73.8184 17.2518 73.6012 17.5588 73.167 17.8208C72.1038 18.4572 70.9658 18.8877 69.7529 19.1123C68.54 19.3369 67.3571 19.4492 66.2041 19.4492C65.0586 19.4492 64.2388 19.4268 63.7446 19.3818C63.258 19.3444 62.7713 19.262 62.2847 19.1348C61.8055 19.0075 61.4124 18.8353 61.1055 18.6182C60.4391 18.139 60.106 17.4015 60.106 16.4058C60.106 14.6763 61.1504 12.5013 63.2393 9.88086C64.819 7.9043 66.1592 6.7513 67.2598 6.42188C67.8363 6.24967 68.5063 6.16357 69.27 6.16357C70.0412 6.16357 70.4268 6.45557 70.4268 7.03955C70.4268 7.23421 70.3706 7.46631 70.2583 7.73584C69.8315 8.61182 69.4572 9.64876 69.1353 10.8467C68.8133 12.0371 68.6523 13.1077 68.6523 14.0586C68.6523 15.7357 69.285 16.5742 70.5503 16.5742ZM59.1514 7.33154C58.7695 7.33154 58.5786 7.11068 58.5786 6.66895C58.5786 6.18229 58.7246 5.51595 59.0166 4.66992C59.5856 3.06022 60.1958 2.16553 60.8472 1.98584C61.0269 1.91846 61.5697 1.88477 62.4756 1.88477L70.0674 2.06445C70.4417 2.06445 71.5311 1.95215 73.3354 1.72754C75.1473 1.50293 76.0981 1.39062 76.188 1.39062C77.1538 1.39062 77.6367 1.72005 77.6367 2.37891C77.6367 2.6709 77.5319 3.13509 77.3223 3.77148C77.1201 4.40039 76.8506 4.99561 76.5137 5.55713C76.1768 6.11865 75.866 6.39941 75.5815 6.39941C75.4093 6.39941 75.02 6.2609 74.4136 5.98389C72.5793 5.14535 71.1006 4.72607 69.9775 4.72607C68.8545 4.72607 67.5555 4.83464 66.0806 5.05176C64.6056 5.26888 63.5088 5.52718 62.79 5.82666C62.0713 6.11865 61.4424 6.38818 60.9033 6.63525C59.9001 7.09945 59.3161 7.33154 59.1514 7.33154ZM87.4072 3.16504C87.4072 3.96615 86.9618 4.66618 86.0708 5.26514C85.1873 5.85661 84.2515 6.15234 83.2632 6.15234C82.2824 6.15234 81.5187 5.95394 80.9722 5.55713C80.4256 5.15283 80.1523 4.66243 80.1523 4.08594C80.1523 3.50944 80.362 2.98535 80.7812 2.51367C81.2005 2.04199 81.7433 1.67139 82.4097 1.40186C83.0835 1.13232 83.8135 0.997559 84.5996 0.997559C85.3857 0.997559 86.0483 1.20719 86.5874 1.62646C87.134 2.03825 87.4072 2.55111 87.4072 3.16504ZM84.2515 17.1021C84.7606 17.1021 85.4494 16.9823 86.3179 16.7427C87.1938 16.4956 87.8302 16.2785 88.2271 16.0913C88.6239 15.8966 88.9009 15.7993 89.0581 15.7993C89.3726 15.7993 89.5298 15.9565 89.5298 16.271C89.5298 16.4132 89.4137 16.5742 89.1816 16.7539C88.418 17.3229 87.0441 17.9144 85.0601 18.5283C83.076 19.1423 81.3053 19.4492 79.748 19.4492C78.7822 19.4492 77.9736 19.2957 77.3223 18.9888C76.6709 18.6818 76.3452 18.2139 76.3452 17.585C76.3452 17.2031 76.6709 16.2673 77.3223 14.7773C78.5501 11.9548 79.1641 9.82845 79.1641 8.39844L79.1528 7.97168C79.1528 7.59733 79.516 7.41016 80.2422 7.41016L85.79 7.28662C85.9847 7.28662 86.1307 7.34652 86.228 7.46631C86.3254 7.57861 86.374 7.70589 86.374 7.84814C86.374 8.36475 86.1382 9.21826 85.6665 10.4087C85.1948 11.5916 84.7231 12.7559 84.2515 13.9014C83.7798 15.0469 83.5439 15.8667 83.5439 16.3608C83.5439 16.855 83.7798 17.1021 84.2515 17.1021ZM110.239 15.7993C110.516 15.7993 110.654 15.9303 110.654 16.1924C110.654 16.4469 110.516 16.6715 110.239 16.8662C109.969 17.0609 109.569 17.2855 109.037 17.54C108.506 17.7871 107.843 18.0604 107.049 18.3599C106.263 18.6593 105.35 18.9139 104.309 19.1235C103.276 19.3407 102.288 19.4492 101.344 19.4492C99.1206 19.4492 98.0088 18.9401 98.0088 17.9219C98.0088 17.263 98.3831 16.0876 99.1318 14.3955C99.888 12.696 100.266 11.5505 100.266 10.959C100.266 10.2926 99.7458 9.95947 98.7051 9.95947C98.2334 9.95947 97.6981 10.0194 97.0991 10.1392C96.8146 11.1424 96.3055 12.7371 95.5718 14.9233C94.8455 17.1095 94.4338 18.3524 94.3364 18.6519C94.2466 18.9513 94.0482 19.1011 93.7412 19.1011L87.9575 19.2246C87.8752 19.2246 87.7816 19.1722 87.6768 19.0674C87.5794 18.9701 87.5308 18.854 87.5308 18.7192C87.5308 18.577 87.688 18.0866 88.0024 17.248C88.3244 16.402 88.6763 15.4961 89.0581 14.5303C89.4474 13.557 89.7993 12.4901 90.1138 11.3296C90.4357 10.1616 90.5967 9.1958 90.5967 8.43213L90.5854 8.00537C90.5854 7.63102 90.9486 7.44385 91.6748 7.44385L96.998 7.32031C97.1927 7.32031 97.3387 7.38021 97.436 7.5C97.5334 7.6123 97.582 7.75456 97.582 7.92676C97.582 8.09147 97.5409 8.361 97.4585 8.73535C100.094 7.63477 102.258 7.08447 103.95 7.08447C104.668 7.08447 105.324 7.28288 105.915 7.67969C106.574 8.12142 106.903 8.7915 106.903 9.68994C106.903 10.6108 106.555 11.8162 105.859 13.3062C105.163 14.7961 104.814 15.717 104.814 16.0688C104.814 16.7651 105.091 17.1133 105.646 17.1133C105.997 17.1133 106.596 16.9823 107.442 16.7202C108.296 16.4507 108.925 16.2298 109.329 16.0576C109.741 15.8854 110.044 15.7993 110.239 15.7993ZM119.639 7.56738L122.592 7.18555C123.146 7.18555 123.423 7.40267 123.423 7.83691C123.423 8.27116 123.161 8.54443 122.637 8.65674C122.113 8.76156 120.93 8.90381 119.088 9.0835C118.834 9.74984 118.452 10.6745 117.943 11.8574C116.902 14.2832 116.382 15.7394 116.382 16.2261C116.382 16.7576 116.711 17.0234 117.37 17.0234C119.496 17.0234 121.406 16.6678 123.098 15.9565C123.345 15.8517 123.539 15.7993 123.682 15.7993C123.959 15.7993 124.097 15.9229 124.097 16.1699C124.097 16.417 123.917 16.6603 123.558 16.8999C122.458 17.6261 120.799 18.2326 118.583 18.7192C116.367 19.2059 114.323 19.4492 112.451 19.4492C111.388 19.4492 110.576 19.2845 110.014 18.9551C109.453 18.6182 109.172 18.1577 109.172 17.5737C109.172 16.9823 109.561 15.8779 110.34 14.2607C111.216 12.4489 111.845 10.8579 112.227 9.48779C111.762 9.51025 111.44 9.52148 111.261 9.52148C110.819 9.52148 110.598 9.3418 110.598 8.98242C110.598 8.72038 110.669 8.54443 110.812 8.45459C110.954 8.36475 111.1 8.30111 111.25 8.26367C111.407 8.22624 111.538 8.20378 111.643 8.19629C111.755 8.18132 111.908 8.16634 112.103 8.15137C112.298 8.13639 112.44 8.12516 112.53 8.11768C112.627 7.54867 112.676 7.01335 112.676 6.51172L112.665 6.08496C112.665 5.74805 113.091 5.51969 113.945 5.3999C114.229 5.36247 115.124 5.17529 116.629 4.83838C118.134 4.50146 119.055 4.33301 119.392 4.33301C119.931 4.33301 120.2 4.52018 120.2 4.89453C120.2 5.53841 120.013 6.42936 119.639 7.56738ZM124.749 18.2476C123.341 17.4015 122.637 16.1175 122.637 14.3955C122.637 13.4971 122.821 12.6548 123.188 11.8687C123.562 11.075 124.071 10.39 124.715 9.81348C125.366 9.23698 126.122 8.74284 126.983 8.33105C128.705 7.5 130.678 7.08447 132.902 7.08447C137.274 7.08447 139.636 8.46956 139.988 11.2397C140.512 11.4119 141.051 11.498 141.605 11.498C142.167 11.498 142.635 11.4569 143.009 11.3745C143.384 11.2922 143.736 11.1686 144.065 11.0039C144.402 10.8392 144.641 10.7568 144.784 10.7568C145.068 10.7568 145.21 10.8953 145.21 11.1724C145.21 11.4494 144.99 11.7376 144.548 12.0371C143.717 12.6061 142.616 12.8906 141.246 12.8906C140.729 12.8906 140.31 12.8644 139.988 12.812C139.749 14.6987 138.775 16.2673 137.068 17.5176C136.252 18.1165 135.249 18.5882 134.059 18.9326C132.876 19.277 131.648 19.4492 130.375 19.4492C129.11 19.4492 128.024 19.3481 127.118 19.146C126.212 18.9513 125.422 18.6519 124.749 18.2476ZM128.825 15.3838C128.825 16.7689 129.331 17.4614 130.341 17.4614C130.985 17.4614 131.584 17.1095 132.138 16.4058C132.7 15.702 133.134 14.8298 133.441 13.7891C133.755 12.7484 133.913 11.689 133.913 10.6108C133.913 9.52523 133.535 8.98242 132.778 8.98242C132.119 8.98242 131.479 9.29313 130.858 9.91455C130.244 10.536 129.75 11.3446 129.375 12.3403C129.009 13.3286 128.825 14.3431 128.825 15.3838Z" fill="#143C3C"/>
</svg>
